P3
2 2
255
111 111 111 222 222 222 
0 0 0 50 25 12 

