P3
82 58
255
254 212 212 254 141 141 254 141 141 254 141 141 254 141 141 254 141 141 254 141 141 254 141 141 254 141 141 254 141 141 254 141 141 254 139 139 253 114 114 253 103 102 253 103 102 253 103 102 253 103 102 253 103 102 253 103 102 253 103 102 253 103 102 253 103 102 253 103 102 253 103 102 253 103 102 253 103 102 253 103 102 253 103 102 253 103 102 253 103 102 253 103 102 253 103 102 253 103 102 253 103 102 253 103 102 253 103 102 253 103 102 253 103 102 253 103 102 253 103 102 253 103 102 253 103 102 253 103 103 253 103 103 253 103 102 253 103 103 253 103 103 253 103 103 252 103 103 253 103 103 253 103 103 253 103 103 252 103 103 252 103 103 252 103 103 252 103 103 253 103 103 252 103 103 252 103 103 252 103 103 252 103 103 252 103 103 252 103 103 252 103 103 252 103 103 253 103 103 253 103 103 253 103 103 253 103 102 253 103 102 253 103 102 253 103 102 253 103 102 253 103 102 253 103 102 252 104 103 252 114 103 252 157 103 181 209 132 106 198 252 105 172 253 105 167 253 
254 193 193 253 4 3 253 4 3 253 4 3 253 4 3 253 4 3 253 4 3 253 4 3 253 4 3 253 4 3 253 4 3 253 4 3 253 4 3 253 4 3 253 4 3 253 4 3 253 4 3 253 4 3 253 4 3 253 4 3 253 4 3 253 4 3 253 4 3 253 4 3 253 4 3 253 4 3 253 4 3 253 4 3 253 4 3 253 4 3 253 4 3 253 4 3 253 4 3 253 4 3 253 4 3 253 4 3 253 4 3 253 4 3 253 4 3 253 4 3 253 4 3 253 4 3 253 4 3 253 4 4 253 4 3 253 5 4 253 7 6 253 6 4 252 7 6 252 10 6 253 10 6 253 7 6 252 11 6 253 10 6 252 11 6 252 10 6 253 8 6 253 7 4 253 8 6 253 7 6 253 11 5 252 10 6 252 7 4 252 6 4 253 6 4 253 5 3 253 5 3 253 5 4 253 4 3 253 4 3 253 4 3 253 4 3 253 4 3 253 4 3 253 4 3 253 10 4 252 38 6 252 117 4 181 191 83 25 156 252 21 115 253 20 100 252 
254 193 193 253 4 3 253 4 3 253 4 3 253 4 3 253 4 3 253 4 3 253 4 3 253 4 3 253 4 3 253 4 3 253 4 3 253 4 3 253 4 3 253 4 3 253 4 3 253 4 3 253 4 3 253 4 3 253 4 3 253 4 3 253 4 3 253 4 3 253 4 3 253 4 3 253 4 3 253 4 3 253 4 3 253 4 3 253 4 3 253 4 3 253 4 3 253 4 3 253 4 3 253 4 3 253 4 3 253 4 3 253 4 3 253 4 3 253 4 3 253 4 3 253 4 3 253 4 3 253 4 3 253 5 4 253 8 4 253 15 5 252 12 5 252 9 6 252 10 6 252 7 6 252 10 6 252 9 6 252 12 5 252 14 5 253 6 4 253 4 3 253 4 3 253 5 3 253 6 4 253 6 4 253 6 4 253 4 3 253 4 3 253 4 3 253 4 3 253 4 3 253 4 3 253 4 3 253 4 3 253 4 3 253 4 3 253 4 3 253 4 3 253 4 3 253 6 4 252 19 5 252 86 10 204 166 64 23 113 247 40 47 252 51 31 251 
254 193 193 253 4 3 253 4 3 253 4 3 253 4 3 253 4 3 253 4 3 253 4 3 253 4 3 253 4 3 253 4 3 253 4 3 253 4 3 253 4 3 253 4 3 253 4 3 253 4 3 253 4 3 253 4 3 253 4 3 253 4 3 253 4 3 253 4 3 253 4 3 253 4 3 253 4 3 253 4 3 253 4 3 253 4 3 253 4 3 253 4 3 253 4 3 253 4 3 253 4 3 253 4 3 253 4 3 253 4 3 253 4 3 253 4 3 253 4 3 253 4 3 253 4 3 253 4 3 253 4 3 253 5 4 253 8 4 253 11 5 252 12 5 252 12 5 252 12 4 252 11 6 252 12 5 252 14 5 252 14 5 253 7 4 253 5 3 253 4 3 253 4 3 253 4 3 253 4 3 253 4 3 253 4 3 253 4 3 253 4 3 253 4 3 253 4 3 253 4 3 253 4 3 253 4 3 253 4 3 253 4 3 253 4 3 253 4 3 253 4 3 253 4 3 253 5 3 252 12 4 252 75 11 218 151 50 31 101 238 66 14 250 74 8 247 
254 193 193 253 4 3 253 4 3 253 4 3 253 4 3 253 4 3 253 4 3 253 4 3 253 4 3 253 4 3 253 4 3 253 4 3 253 4 3 253 4 3 253 4 3 253 4 3 253 4 3 253 4 3 253 4 3 253 4 3 253 4 3 253 4 3 253 4 3 253 4 3 253 4 3 253 4 3 253 4 3 253 4 3 253 4 3 253 4 3 253 4 3 253 4 3 253 4 3 253 4 3 253 4 3 253 4 3 253 4 3 253 4 3 253 4 3 253 4 3 253 4 3 253 4 3 253 4 3 253 4 3 253 5 4 253 6 4 253 5 4 253 5 4 252 7 4 253 8 6 252 12 5 252 10 6 253 5 3 253 4 3 253 4 3 253 4 3 253 4 3 253 4 3 253 4 3 253 4 3 253 4 3 253 4 3 253 4 3 253 4 3 253 4 3 253 4 3 253 4 3 253 4 3 253 4 3 253 4 3 253 4 3 253 4 3 253 4 3 253 4 3 253 4 3 253 5 3 253 8 4 252 48 7 231 118 32 62 89 223 78 8 242 54 58 240 
254 196 193 252 37 7 253 8 4 253 5 3 253 4 3 253 4 3 253 4 3 253 4 3 253 4 3 253 4 3 253 4 3 253 4 3 253 4 3 253 4 3 253 4 3 253 4 3 253 4 3 253 4 3 253 4 3 253 4 3 253 4 3 253 4 3 253 4 3 253 4 3 253 4 3 253 4 3 253 4 3 253 4 3 253 4 3 253 4 3 253 4 3 253 4 3 253 4 3 253 4 3 253 4 3 253 4 3 253 4 3 253 4 3 253 4 3 253 4 3 253 4 3 253 4 3 253 4 3 253 4 3 253 4 3 253 7 6 253 7 6 253 5 4 253 5 4 253 4 3 253 6 6 253 4 3 253 4 3 253 4 3 253 4 3 253 4 3 253 4 3 253 4 3 253 4 3 253 4 3 253 4 3 253 4 3 253 4 3 253 4 3 253 4 3 253 4 3 253 4 3 253 4 3 253 4 3 253 4 3 253 4 3 253 4 3 253 4 3 253 4 3 253 4 3 253 4 3 253 6 4 252 25 6 243 93 17 80 117 202 39 93 247 29 159 251 
254 209 193 252 94 10 252 24 5 252 7 4 253 6 4 253 6 4 253 5 3 253 4 3 253 4 3 253 4 3 253 4 3 253 4 3 253 4 3 253 4 3 253 4 3 253 4 3 253 4 3 253 4 3 253 4 3 253 4 3 253 4 3 253 4 3 253 4 3 253 4 3 253 4 3 253 4 3 253 4 3 253 4 3 253 4 3 253 4 3 253 4 3 253 4 3 253 4 3 253 4 3 253 4 3 253 4 3 253 4 3 253 4 3 253 4 3 253 4 3 253 4 3 253 4 3 253 4 3 253 4 3 253 4 3 253 6 6 253 6 6 253 5 4 253 5 3 253 4 3 253 5 4 253 4 3 253 4 3 253 4 3 253 4 3 253 4 3 253 4 3 253 4 3 253 4 3 253 4 3 253 4 3 253 4 3 253 4 3 253 4 3 253 4 3 253 4 3 253 4 3 253 4 3 253 4 3 253 4 3 253 4 3 253 4 3 253 4 3 253 4 3 253 4 3 253 4 3 253 6 4 253 12 5 249 72 13 90 187 168 27 161 253 27 174 253 
253 222 193 251 111 11 252 8 4 253 6 4 252 7 4 252 88 13 252 99 12 253 16 5 253 4 3 253 4 3 253 4 3 253 4 3 253 4 3 253 4 3 253 4 3 253 4 3 253 4 3 253 4 3 253 4 3 253 4 3 253 4 3 253 4 3 253 4 3 253 4 3 253 4 3 253 4 3 253 4 3 253 4 3 253 4 3 253 4 3 253 4 3 253 4 3 253 4 3 253 4 3 253 4 3 253 4 3 253 4 3 253 4 3 253 4 3 253 4 3 253 4 3 253 4 3 253 5 3 241 41 17 216 81 46 235 60 23 248 34 9 252 7 4 252 20 7 253 6 4 253 5 3 253 4 3 253 4 3 253 4 3 253 4 3 253 4 3 253 4 3 253 4 3 253 4 3 253 4 3 253 4 3 253 4 3 253 4 3 253 4 3 253 4 3 253 4 3 253 4 3 253 4 3 253 4 3 253 4 3 253 4 3 253 4 3 253 4 3 253 4 3 253 4 3 253 4 3 253 5 4 253 7 4 252 46 8 145 215 103 29 172 252 28 164 253 
253 227 193 251 114 11 253 6 4 253 6 4 253 5 3 249 141 13 232 212 13 232 132 14 250 58 12 253 5 4 253 4 3 253 4 3 253 4 3 253 4 3 253 4 3 253 4 3 253 4 3 253 4 3 253 4 3 253 4 3 253 4 3 253 4 3 253 4 3 253 4 3 253 4 3 253 4 3 253 4 3 253 4 3 253 4 3 253 4 3 253 4 3 253 4 3 253 4 3 253 4 3 253 4 3 253 4 3 253 4 3 253 4 3 253 4 3 253 4 3 253 4 3 253 4 3 242 31 16 173 129 83 87 196 165 141 168 108 212 126 45 241 86 15 220 122 37 226 82 29 252 7 4 253 4 3 253 4 3 253 4 3 253 4 3 253 4 3 253 4 3 253 4 3 253 4 3 253 4 3 253 4 3 253 4 3 253 4 3 253 4 3 253 4 3 253 4 3 253 4 3 253 4 3 253 4 3 253 4 3 253 4 3 253 4 3 253 4 3 253 4 3 253 4 3 253 4 3 253 5 3 253 7 6 252 41 7 183 204 69 41 98 245 32 115 249 
245 240 193 242 143 17 252 6 4 252 7 4 253 4 4 250 140 13 198 244 17 176 221 11 239 85 13 253 4 3 253 4 3 253 4 3 253 4 3 253 4 3 253 4 3 253 4 3 253 4 3 253 4 3 253 4 3 253 4 3 253 4 3 253 4 3 253 4 3 253 4 3 253 4 3 253 4 3 253 4 3 253 4 3 253 4 3 253 4 3 253 4 3 253 4 3 253 4 3 253 4 3 253 4 3 253 4 3 253 4 3 253 4 3 252 5 3 251 9 6 248 23 9 237 47 18 139 132 121 48 185 212 46 216 171 41 155 222 84 204 170 82 246 132 41 243 187 37 239 184 190 172 68 252 20 5 253 4 3 253 4 3 253 4 3 253 4 3 253 4 3 253 4 3 253 4 3 253 4 3 253 4 3 253 4 3 253 4 3 253 4 3 253 4 3 253 4 3 253 4 3 253 4 3 253 4 3 253 4 3 253 4 3 253 4 3 253 4 3 253 4 3 253 4 3 253 4 3 253 4 3 253 10 4 252 30 6 234 159 26 102 73 178 102 63 184 
251 196 193 249 34 9 253 4 3 253 4 3 253 4 3 252 86 13 236 210 8 233 174 19 251 50 11 253 4 3 253 4 3 253 4 3 253 4 3 253 4 3 253 4 3 253 4 3 253 4 3 253 4 3 253 4 3 253 4 3 253 4 3 253 4 3 253 4 3 253 4 3 253 4 3 253 4 3 253 4 3 253 4 3 253 4 3 253 4 3 253 4 3 253 4 3 253 4 3 253 4 3 252 5 3 238 34 20 215 88 48 187 161 79 169 178 95 94 172 118 64 153 174 60 118 205 51 59 234 55 32 216 56 27 134 62 23 168 57 36 174 54 58 210 60 51 217 61 43 212 81 98 188 113 111 152 193 83 64 240 27 15 253 4 3 253 4 3 253 4 3 253 4 3 253 4 3 253 4 3 253 4 3 253 4 3 253 4 3 253 4 3 253 4 3 253 4 3 253 4 3 253 4 3 253 4 3 253 4 3 253 4 3 253 4 3 253 4 3 253 4 3 253 4 3 253 4 3 253 4 3 253 6 4 253 8 6 252 18 5 245 67 16 242 103 16 
254 193 193 253 5 4 253 4 3 253 4 3 253 4 3 252 71 12 249 195 11 247 135 14 252 28 8 253 4 3 253 4 3 253 4 3 253 4 3 253 4 3 253 4 3 253 4 3 253 4 3 253 4 3 253 4 3 253 4 3 253 4 3 253 4 3 253 4 3 253 4 3 253 4 3 253 4 3 253 4 3 253 4 3 253 4 3 253 4 3 253 4 3 253 4 3 253 7 4 246 24 11 195 73 61 143 112 116 107 138 156 82 142 187 75 123 196 51 91 215 51 61 218 60 31 207 73 9 218 72 6 191 55 2 91 60 1 98 59 2 99 69 3 144 75 2 161 73 2 154 76 5 190 57 56 207 102 127 152 180 88 78 245 28 13 253 5 3 253 4 3 253 4 3 253 4 3 253 4 3 253 4 3 253 4 3 253 4 3 253 4 3 253 4 3 253 4 3 253 4 3 253 4 3 253 4 3 253 4 3 253 4 3 253 4 3 253 4 3 253 4 3 253 4 3 253 4 3 253 4 3 253 6 4 253 7 6 252 5 4 252 32 6 252 48 7 
253 196 193 252 42 10 253 15 5 253 5 3 253 4 3 253 73 13 253 192 12 252 92 13 252 6 3 253 4 3 253 4 3 253 4 3 253 4 3 253 4 3 253 4 3 253 4 3 253 4 3 253 4 3 253 4 3 253 4 3 253 4 3 253 4 3 253 4 3 253 4 3 253 4 3 253 4 3 253 4 3 253 4 3 253 4 3 253 4 3 253 4 3 252 5 3 218 76 39 148 153 106 42 178 220 35 106 245 53 47 236 70 15 205 77 5 188 79 2 182 74 3 152 73 3 146 74 3 168 74 3 168 56 2 92 46 1 69 46 1 68 50 1 79 56 1 92 62 1 104 64 1 114 62 3 118 62 26 165 75 65 191 128 96 142 218 47 45 253 5 3 253 4 3 253 4 3 253 4 3 253 4 3 253 4 3 253 4 3 253 4 3 253 4 3 253 4 3 253 4 3 253 4 3 253 4 3 253 4 3 253 4 3 253 4 3 253 4 3 253 4 3 253 4 3 253 4 3 253 4 3 253 8 4 253 8 4 253 4 4 252 66 13 247 68 13 
254 219 193 252 148 16 252 87 13 253 26 8 253 4 3 253 78 14 253 192 12 252 75 15 253 4 3 253 4 3 253 4 3 253 4 3 253 4 3 253 4 3 253 4 3 253 4 3 253 4 3 253 4 3 253 4 3 253 4 3 253 4 3 253 4 3 253 4 3 253 4 3 253 4 3 253 4 3 253 4 3 253 4 3 253 4 3 253 4 3 253 4 3 239 29 12 131 151 112 54 184 203 28 93 251 62 27 229 78 5 199 78 2 166 77 2 151 73 2 142 65 2 119 69 2 131 71 3 138 71 3 140 53 1 85 40 1 59 42 1 61 40 1 58 44 1 64 53 1 84 50 1 79 56 2 93 66 3 122 68 8 164 66 52 223 140 78 128 236 29 22 253 4 3 253 4 3 253 4 3 253 4 3 253 4 3 253 4 3 253 4 3 253 4 3 253 4 3 253 4 3 253 4 3 253 4 3 253 4 3 253 4 3 253 4 3 253 4 3 253 4 3 249 7 6 225 42 25 253 5 4 253 7 6 253 6 4 253 4 3 250 101 10 229 157 16 
254 226 193 252 169 14 251 75 11 252 16 4 253 4 3 252 72 13 253 174 16 253 60 13 253 4 3 253 4 3 253 4 3 253 4 3 253 4 3 253 4 3 253 4 3 253 4 3 253 4 3 253 4 3 253 4 3 253 4 3 253 4 3 253 4 3 253 4 3 253 4 3 253 4 3 253 4 3 253 4 3 253 4 3 253 4 3 253 4 3 238 54 14 145 160 71 32 198 217 20 131 251 59 24 247 81 3 200 76 2 154 67 1 115 64 1 108 65 1 111 50 1 76 48 1 73 47 1 71 52 2 83 51 1 81 42 1 60 37 0 51 37 0 48 37 0 50 45 1 65 43 2 63 53 1 85 69 2 126 66 1 115 71 3 147 72 50 205 119 102 146 239 21 20 253 4 3 253 4 3 253 4 3 253 4 3 253 4 3 253 4 3 253 4 3 253 4 3 253 4 3 253 4 3 253 4 3 253 4 3 253 4 3 253 4 3 253 4 3 236 24 15 160 153 59 169 145 62 248 20 8 252 9 6 252 10 6 253 5 3 252 92 10 243 184 13 
244 219 193 230 148 15 249 94 12 252 31 7 253 4 3 252 83 14 252 162 17 253 40 8 253 4 3 253 4 3 253 4 3 253 4 3 253 4 3 253 4 3 253 4 3 253 4 3 253 4 3 253 4 3 253 4 3 253 4 3 253 4 3 253 4 3 253 4 3 253 4 3 253 4 3 253 4 3 253 4 3 252 4 3 252 4 3 248 31 9 178 125 85 75 187 185 22 141 251 34 71 249 84 4 221 81 2 182 75 2 150 62 1 105 66 1 115 61 1 102 43 1 63 40 1 58 38 1 51 38 0 51 38 0 52 37 0 49 37 0 47 37 0 47 37 0 47 38 0 52 41 1 61 41 0 60 61 1 101 65 1 110 64 1 109 68 8 162 65 45 212 113 102 155 200 57 63 246 9 10 253 4 3 253 4 3 253 4 3 253 4 3 253 4 3 253 4 3 253 4 3 253 4 3 253 4 3 253 4 3 253 4 3 253 4 3 244 18 8 184 112 40 149 190 63 238 94 16 250 15 7 252 7 6 252 9 6 253 5 3 252 70 11 246 160 13 
241 223 194 228 157 20 249 88 13 252 25 6 253 4 3 252 87 13 252 151 15 253 30 7 253 4 3 253 4 3 253 4 3 253 4 3 253 4 3 253 4 3 253 4 3 253 4 3 253 4 3 253 4 3 251 5 4 206 55 40 192 69 59 194 68 63 192 70 65 192 73 69 187 74 73 185 75 76 184 76 79 182 73 82 181 79 81 167 127 86 89 163 170 35 180 241 26 103 252 52 38 248 83 3 211 80 2 176 73 2 141 62 1 104 67 2 121 60 1 98 40 1 58 41 1 60 38 1 51 37 0 47 37 0 47 37 0 47 37 0 47 37 0 47 37 0 47 37 0 48 38 1 52 38 0 52 50 1 79 58 2 95 63 1 105 67 2 125 68 9 175 49 104 228 117 109 149 210 45 52 253 4 3 253 4 3 253 4 3 253 4 3 253 4 3 253 4 3 253 4 3 253 4 3 253 4 3 253 4 3 253 4 3 251 7 4 238 60 17 188 157 32 218 144 18 207 123 38 238 39 14 252 7 6 252 10 6 253 5 4 252 58 11 250 149 12 
246 203 193 243 85 13 252 31 7 253 6 4 253 4 3 252 93 12 252 130 10 253 12 4 253 4 3 253 4 3 253 4 3 253 4 3 253 4 3 253 4 3 253 4 3 253 4 3 253 4 3 253 4 3 243 16 11 76 194 162 47 233 218 46 223 223 46 219 224 44 213 228 39 194 233 35 176 235 35 175 240 34 172 242 39 217 240 39 243 239 25 155 250 20 134 252 40 66 251 70 10 247 83 4 231 79 2 181 68 2 126 65 1 113 66 1 115 50 1 79 41 1 61 40 1 57 37 1 49 37 0 47 37 0 47 37 0 48 37 0 47 37 0 47 37 0 47 37 0 47 37 0 47 37 0 48 39 0 53 42 1 63 54 2 88 65 1 110 66 2 120 70 8 178 67 54 211 117 58 156 235 15 27 252 5 4 253 4 3 253 4 3 253 4 3 253 4 3 253 4 3 253 4 3 253 4 3 253 4 3 253 4 3 237 44 13 233 152 20 225 155 42 180 130 74 195 104 43 234 52 17 252 7 4 252 8 4 252 7 6 252 49 9 250 143 11 
253 194 193 251 21 7 252 12 5 253 6 4 252 5 4 252 109 9 252 129 10 253 6 3 253 4 3 253 4 3 253 4 3 253 4 3 253 4 3 253 4 3 253 4 3 253 4 3 253 4 3 253 4 3 238 22 20 55 220 205 41 250 254 35 220 253 33 215 252 30 194 252 26 170 253 25 157 252 26 165 253 28 181 252 37 231 254 38 237 253 19 133 252 20 135 252 45 65 250 66 14 247 79 4 246 75 2 170 66 2 119 69 2 128 64 1 112 50 1 78 45 1 67 39 1 54 37 0 47 37 0 47 37 0 47 37 0 48 37 0 47 37 0 47 37 0 47 37 0 47 37 0 47 37 0 47 37 0 48 37 0 50 46 1 70 59 2 97 59 1 98 66 2 126 72 7 170 86 15 180 166 36 104 226 29 36 253 4 3 253 4 3 253 4 3 253 4 3 253 4 3 253 4 3 253 4 3 253 4 3 248 15 6 242 57 14 236 145 21 161 172 105 68 215 186 230 81 23 247 33 10 252 11 4 252 20 5 252 9 6 252 39 7 251 124 7 
254 193 193 253 5 4 252 6 4 253 5 3 253 5 4 252 134 8 252 111 9 253 4 3 253 4 3 253 4 3 253 4 3 253 4 3 253 4 3 253 4 3 253 4 3 253 4 3 253 4 3 253 4 3 231 30 26 50 228 220 41 252 254 30 196 252 28 182 252 27 177 252 29 184 252 31 207 253 37 229 254 37 234 254 40 250 255 38 237 254 26 109 251 25 139 252 23 133 253 29 70 251 37 43 251 65 14 207 76 2 157 78 1 164 69 2 130 63 1 105 46 1 70 40 1 59 37 0 49 37 0 47 37 0 47 37 0 47 37 0 47 37 0 47 37 0 47 37 0 47 37 0 47 37 0 47 37 0 47 37 0 48 40 1 55 45 1 67 41 1 60 45 1 66 55 2 92 63 1 108 75 12 186 108 53 174 231 26 29 253 4 3 253 4 3 253 4 3 253 4 3 253 4 3 253 4 3 248 15 7 210 114 20 227 117 15 214 98 46 86 156 174 38 236 254 129 180 94 183 105 45 252 38 7 253 72 10 252 29 6 253 31 7 252 111 7 
254 193 193 253 4 3 253 5 3 253 4 3 252 6 3 252 126 7 252 91 11 253 4 3 253 4 3 253 4 3 253 4 3 253 4 3 253 4 3 253 4 3 253 4 3 253 4 3 253 4 3 253 4 3 224 39 31 46 240 216 42 255 255 38 238 254 36 224 253 38 238 252 39 247 238 38 251 224 39 254 215 43 254 201 41 249 219 27 166 253 49 42 248 45 69 247 24 109 250 26 73 251 42 39 251 74 9 226 80 2 183 79 1 167 76 2 152 74 2 149 54 1 88 50 1 79 39 0 55 37 0 48 37 0 47 37 0 47 37 0 47 37 0 47 37 0 47 37 0 47 37 0 47 37 0 47 37 0 47 37 0 47 39 1 55 44 1 65 40 1 58 42 1 62 46 1 68 56 2 93 68 5 144 74 33 193 184 43 83 248 7 9 253 4 3 253 4 3 253 4 3 253 4 3 253 4 3 248 30 9 228 102 26 163 145 81 134 185 108 67 182 191 39 200 235 147 183 99 231 84 19 251 45 8 252 80 10 252 59 9 252 38 9 252 127 8 
254 193 193 253 5 3 253 6 4 253 6 4 252 16 5 252 141 11 252 94 11 253 5 3 253 4 3 253 4 3 253 4 3 253 4 3 253 5 3 249 29 8 249 29 8 253 4 3 253 4 3 253 4 3 219 44 31 44 247 205 41 255 252 41 252 251 40 248 245 39 253 214 42 255 158 40 255 130 53 248 115 98 218 94 76 227 137 27 162 251 50 43 247 61 27 240 48 40 238 52 32 246 74 9 242 82 4 221 82 2 193 80 2 180 79 1 166 79 2 174 63 1 108 56 1 91 41 1 60 37 0 49 37 0 47 37 0 47 37 0 47 37 0 47 37 0 47 37 0 47 37 0 47 37 0 47 37 0 47 37 0 47 39 1 53 42 1 62 40 1 58 40 1 58 40 1 57 52 1 83 68 2 130 62 33 174 157 56 110 240 12 20 253 4 3 253 4 3 253 4 3 253 4 3 253 4 3 252 7 4 192 94 46 83 195 144 82 227 158 87 185 162 115 149 143 121 203 117 211 111 28 249 47 8 252 85 10 253 84 10 252 38 7 252 125 9 
253 197 193 250 69 14 251 92 12 251 82 13 252 65 12 253 198 8 252 136 12 253 7 4 253 4 3 253 4 3 253 4 3 253 4 3 251 53 11 233 149 19 233 146 17 253 5 3 253 4 3 253 4 3 209 54 32 40 253 180 39 255 230 38 255 222 39 255 206 41 255 115 63 254 28 109 237 20 175 186 19 240 77 13 167 167 46 30 183 245 38 68 249 61 22 229 81 2 193 82 3 212 83 3 222 83 3 205 83 2 200 82 3 216 81 2 192 83 2 196 69 3 136 58 2 94 45 1 69 39 0 54 37 0 47 37 0 47 37 0 47 37 0 47 37 0 47 37 0 47 37 0 47 37 0 47 37 0 47 37 0 47 37 0 49 39 1 52 39 1 54 40 1 55 42 1 61 48 1 75 73 2 145 60 34 167 141 75 123 232 22 30 253 4 3 253 4 4 253 4 3 253 4 3 253 4 3 253 4 3 181 108 53 101 187 121 90 212 143 141 168 92 240 45 17 108 214 122 179 143 38 242 53 11 252 99 9 253 118 4 252 41 7 252 104 9 
250 233 193 245 202 11 247 212 12 250 201 11 252 142 13 254 230 16 253 164 18 253 8 4 253 4 3 253 4 3 253 4 3 253 4 3 251 50 11 239 118 15 233 121 16 252 5 4 253 4 3 253 4 3 203 66 36 39 254 172 38 255 216 39 255 205 42 255 165 80 250 76 141 238 18 200 181 20 237 70 13 249 43 10 158 177 50 36 232 215 37 87 247 68 14 219 81 2 177 81 2 187 78 2 184 80 3 192 74 12 222 62 32 242 70 17 211 79 1 172 69 2 137 59 1 98 47 1 71 40 0 57 37 0 48 37 0 47 38 0 50 38 1 52 38 0 50 37 0 47 37 0 47 37 0 47 37 0 47 37 0 47 37 0 47 37 0 48 37 0 50 37 0 51 42 1 62 49 1 76 77 2 160 68 38 182 142 99 118 230 54 34 250 15 7 252 6 6 250 9 6 253 5 3 253 4 3 252 4 4 228 85 26 183 131 65 88 209 130 142 172 88 248 53 13 172 152 66 195 139 24 236 67 13 252 115 7 252 134 4 252 54 9 252 97 11 
255 255 193 255 255 15 252 255 15 253 255 15 253 237 16 254 238 18 252 148 16 253 6 4 253 4 3 253 4 3 253 4 3 253 4 3 253 4 3 253 4 3 253 4 3 253 4 3 253 4 3 253 4 3 184 87 38 40 255 153 39 255 188 39 255 199 41 255 127 83 251 52 109 232 66 68 246 54 89 222 76 79 229 137 56 248 162 30 160 249 39 76 247 73 10 218 79 1 165 79 2 172 74 5 193 44 76 233 32 167 242 35 226 233 27 163 247 57 33 220 77 2 180 66 2 126 46 1 68 40 1 54 37 0 49 44 1 68 61 2 116 70 2 137 65 1 115 49 1 78 45 2 66 58 1 99 62 2 120 56 2 98 41 1 61 38 1 52 39 1 52 39 1 52 45 2 66 50 2 78 76 3 170 69 63 210 119 193 109 162 154 56 250 6 4 253 4 3 253 5 3 253 5 3 253 4 3 253 4 4 175 145 28 150 177 45 86 211 113 84 228 135 249 62 14 244 42 10 223 110 19 239 57 13 251 90 10 252 128 2 252 73 12 252 99 11 
255 255 193 254 255 15 255 255 15 255 255 15 253 242 16 254 235 17 252 138 13 253 5 3 253 4 3 253 4 3 253 4 3 253 4 3 253 4 3 253 4 3 253 4 3 253 4 3 253 4 3 253 4 3 168 104 45 39 255 185 39 255 230 41 255 239 39 255 217 40 255 192 40 255 209 39 255 201 41 255 155 41 254 112 37 238 184 29 71 251 28 71 251 34 58 246 57 30 213 69 14 208 29 131 234 45 222 155 52 249 95 41 251 106 32 213 197 29 83 248 62 18 210 73 4 188 59 2 117 48 2 77 48 1 74 59 6 150 69 9 217 79 4 221 81 3 204 77 2 167 70 2 130 75 2 159 80 3 211 77 5 216 72 3 182 66 3 135 56 2 96 39 0 54 38 0 51 44 1 64 69 6 159 65 93 194 87 242 136 105 235 114 223 62 25 236 34 13 243 22 8 252 6 4 253 4 3 253 4 4 208 91 20 157 182 32 76 196 156 73 205 164 169 121 77 188 96 71 223 117 23 241 60 13 252 107 8 252 168 13 252 88 11 252 91 12 
250 240 193 243 224 18 228 235 18 238 242 19 254 245 17 254 231 16 252 128 12 253 5 3 253 4 3 253 4 3 253 4 3 253 4 3 253 4 3 253 4 3 253 4 3 253 4 3 253 4 3 253 4 3 155 116 46 39 255 195 41 255 246 41 255 253 42 255 254 41 255 251 41 255 248 41 255 242 40 255 197 42 255 111 35 225 179 21 100 251 23 93 252 23 89 252 31 81 246 45 84 230 83 211 153 113 250 60 86 254 45 42 251 115 36 234 201 29 89 251 50 34 248 73 8 233 67 5 172 54 13 145 47 20 147 48 29 221 56 23 246 77 5 229 79 3 209 71 3 153 65 2 123 64 2 127 66 3 152 66 3 165 69 4 183 76 2 176 69 3 147 42 1 66 37 0 48 42 1 63 70 7 159 60 87 196 78 232 153 105 234 131 137 159 82 154 140 78 208 80 37 251 9 6 253 5 3 253 4 3 222 72 16 164 190 38 94 194 150 106 173 142 75 149 177 95 146 158 184 140 49 232 61 14 252 114 9 253 188 10 252 100 10 252 77 13 
249 199 193 238 84 14 217 116 17 227 123 15 254 241 17 253 210 10 252 94 11 253 4 3 253 4 3 253 4 3 253 4 3 253 4 3 253 4 3 253 4 3 253 4 3 253 4 3 253 4 3 253 4 3 143 133 37 40 255 157 39 255 213 40 255 235 41 255 243 41 255 244 41 255 246 41 255 247 41 255 243 40 254 207 34 226 201 20 142 251 21 120 252 30 91 249 35 110 241 69 207 177 227 230 27 134 219 110 54 189 176 36 144 219 40 111 226 41 54 198 55 20 203 70 8 209 64 17 229 38 52 246 24 72 249 44 37 242 63 13 202 68 3 148 60 2 111 41 1 62 39 0 56 40 1 58 42 1 62 44 1 64 48 1 78 67 3 152 72 8 207 48 4 100 38 1 52 41 1 61 71 4 147 57 57 205 61 216 173 119 244 124 140 231 93 155 168 89 207 89 47 250 19 7 252 5 3 253 4 3 247 24 8 224 76 30 195 89 63 122 111 142 26 64 251 47 138 211 121 201 105 210 72 31 252 102 10 253 187 11 252 116 7 252 72 12 
254 193 193 251 16 5 248 29 8 248 29 6 253 224 15 253 191 12 252 61 12 253 4 3 253 4 3 253 4 3 253 4 3 253 4 3 253 4 3 253 4 3 253 4 3 253 4 3 253 4 3 253 4 3 180 109 25 80 198 86 71 199 123 73 196 140 75 194 152 78 193 153 80 194 161 80 193 163 80 188 156 82 184 145 70 193 154 28 179 252 21 125 252 38 78 245 49 99 224 101 217 136 156 237 92 64 134 199 53 65 212 65 32 183 63 19 157 51 8 109 54 5 114 63 4 139 68 13 212 41 47 247 32 56 251 67 13 231 76 3 184 68 2 126 60 1 102 50 2 81 52 1 87 60 2 111 61 2 119 62 2 122 66 2 141 68 9 188 53 30 233 42 15 126 38 1 57 39 0 56 68 3 131 58 46 189 66 210 180 125 250 113 158 228 76 170 158 66 201 108 38 246 28 9 252 6 4 253 4 3 247 13 6 242 24 12 243 19 12 132 90 131 23 106 243 61 169 185 136 180 108 223 61 26 252 86 13 253 183 11 252 129 6 252 74 12 
254 193 193 253 4 3 253 4 3 252 4 3 253 219 14 253 182 14 251 47 10 252 12 5 252 11 6 253 4 3 253 4 3 253 4 3 253 4 3 253 4 3 253 4 3 253 4 3 253 4 3 252 6 4 252 5 3 246 33 9 245 46 12 251 15 5 253 4 3 253 4 3 253 4 3 253 4 3 253 4 3 253 4 3 250 6 4 104 212 136 24 136 247 40 66 242 63 72 210 118 205 118 63 251 124 34 173 237 37 107 239 41 66 234 52 36 227 75 6 226 81 4 222 82 4 230 49 40 247 27 145 253 31 196 253 28 77 250 59 23 226 79 2 171 78 1 164 78 2 157 80 2 172 84 3 211 84 3 220 83 4 233 79 4 249 47 42 252 21 111 251 31 61 161 37 9 72 39 1 54 53 1 89 54 45 164 56 208 183 100 250 145 120 247 115 132 232 97 203 123 40 248 37 10 252 7 4 253 4 3 236 52 14 213 85 29 226 59 23 145 119 108 90 233 126 110 216 91 173 153 80 246 45 10 252 64 12 253 184 10 252 134 8 252 79 12 
254 193 193 253 4 3 253 4 4 251 6 3 254 238 19 253 180 15 251 69 12 252 61 11 252 25 6 253 4 3 253 4 3 253 4 3 253 4 3 253 4 3 253 4 3 253 6 4 252 37 10 226 133 16 221 162 21 193 215 11 207 211 11 214 168 21 246 77 15 252 26 8 253 4 3 253 4 3 253 4 3 253 4 3 253 4 3 212 84 30 40 190 222 29 122 250 54 96 226 133 198 123 135 250 40 40 251 187 37 239 235 31 182 243 28 96 245 68 11 230 82 3 214 82 3 216 41 55 245 30 168 243 38 252 220 26 122 250 52 35 225 79 1 170 73 2 143 67 2 121 56 2 98 58 2 115 65 2 137 66 4 169 75 5 218 45 49 249 18 131 252 33 90 200 50 18 114 50 2 79 46 1 74 48 50 152 55 215 180 108 249 119 113 250 110 124 231 95 220 89 26 247 37 10 252 10 6 253 4 3 248 46 11 220 91 27 150 176 81 95 206 140 139 198 99 213 129 33 184 138 58 209 76 37 249 63 13 253 200 4 252 166 14 252 91 11 
254 193 193 253 5 3 253 23 6 251 55 10 255 246 19 252 141 15 251 69 11 252 62 11 253 11 4 253 4 3 253 5 3 253 4 3 253 4 3 253 4 3 253 4 3 252 7 4 251 66 15 217 205 10 210 235 16 204 229 16 226 200 11 196 219 13 231 137 15 249 42 10 253 4 3 253 4 3 253 4 3 253 4 3 253 4 3 240 31 13 55 189 202 28 161 252 43 147 226 143 176 109 160 235 20 45 254 169 39 237 223 32 162 232 39 75 211 65 7 166 78 3 184 75 9 206 31 89 244 32 192 221 41 255 176 26 134 251 49 41 236 79 2 185 72 2 148 68 2 126 48 1 77 45 1 69 55 1 93 62 2 127 69 8 199 35 70 248 22 147 253 34 117 222 53 28 137 59 2 97 45 5 81 47 67 161 58 222 173 95 247 134 120 250 119 125 232 100 221 104 31 247 41 11 251 10 6 253 4 3 231 60 16 205 124 22 169 148 70 94 195 140 114 195 123 201 211 29 165 201 76 185 106 56 245 62 15 253 214 7 253 191 9 251 107 8 
254 193 193 253 6 4 252 69 11 252 158 15 253 231 18 252 55 12 252 24 6 253 20 5 253 4 3 253 4 3 253 4 3 253 4 3 253 4 3 253 4 3 253 4 3 253 5 3 252 24 6 245 94 13 236 125 12 234 134 15 251 108 12 238 105 17 236 70 15 249 20 7 253 4 3 253 4 3 253 4 3 253 4 3 253 4 3 253 5 3 93 172 149 31 204 246 49 204 205 167 131 80 222 153 19 128 227 90 66 232 156 31 163 221 39 79 213 63 13 173 55 34 218 37 74 242 31 185 229 44 241 145 62 254 100 27 153 253 36 64 251 68 13 239 75 7 222 78 4 200 72 4 178 67 4 164 69 7 182 63 17 220 34 59 249 20 130 252 28 180 252 33 144 242 53 38 153 63 1 107 60 56 127 91 164 140 101 242 124 84 247 114 85 250 108 131 242 80 225 128 29 244 48 11 251 12 6 253 4 3 217 80 20 173 160 40 198 96 43 137 163 102 35 189 214 148 237 61 158 207 75 216 101 24 246 57 14 253 209 5 253 219 12 252 131 8 
254 193 193 253 7 4 252 73 11 252 169 15 253 194 13 252 29 8 253 6 4 253 6 4 253 4 3 253 4 3 253 4 3 253 4 3 253 4 3 253 4 3 253 4 3 253 4 3 253 5 3 252 15 5 250 52 11 249 54 12 251 71 15 250 48 10 251 16 5 253 5 3 253 4 3 253 4 3 253 4 3 253 4 3 253 4 3 253 4 3 108 164 120 36 231 230 63 215 177 188 107 61 248 48 11 219 174 30 138 249 67 38 229 174 31 177 232 34 132 238 29 140 246 30 179 230 57 238 141 78 253 66 57 254 97 27 167 253 23 88 252 33 49 251 39 43 248 47 36 244 50 30 240 55 26 238 44 38 242 32 59 249 21 106 253 24 153 253 30 192 253 30 158 247 54 44 169 67 5 128 109 158 115 182 227 64 193 241 40 177 249 37 166 249 36 191 221 25 238 121 10 246 57 12 251 18 5 253 4 3 235 40 12 181 120 47 154 184 75 100 205 119 30 177 236 163 210 70 172 182 74 200 114 28 237 59 15 253 204 5 254 232 16 252 144 13 
254 193 193 253 6 4 252 71 11 253 181 14 252 139 15 252 7 4 253 4 3 253 4 3 253 4 3 253 4 3 253 4 3 253 4 3 253 4 3 253 4 3 253 4 3 253 4 3 253 4 3 252 5 4 251 78 13 249 130 12 248 161 21 251 32 7 253 5 3 253 4 3 253 4 3 253 4 3 253 4 3 253 4 3 253 4 3 253 4 3 103 163 96 38 255 127 66 228 93 193 108 42 253 4 3 247 165 18 183 254 19 48 255 84 40 255 195 42 254 254 39 253 217 50 255 133 190 255 26 158 255 22 38 255 124 30 188 252 18 121 252 14 92 252 11 84 252 13 88 252 15 96 252 14 91 252 16 94 252 20 109 252 21 142 252 26 166 253 29 188 252 29 166 251 59 50 203 72 35 192 182 236 54 225 222 16 238 214 12 243 218 14 246 182 14 235 189 14 237 133 13 247 60 14 252 14 5 253 4 3 236 41 11 167 150 57 125 229 119 85 218 146 124 173 124 149 218 89 203 223 33 214 154 28 239 62 16 253 213 12 255 248 17 253 183 14 
254 193 193 253 4 3 252 54 9 253 178 15 251 137 12 252 8 4 253 4 3 253 4 3 253 4 3 253 4 3 253 4 3 253 4 3 253 4 3 253 4 3 253 4 3 253 4 3 253 4 3 253 14 5 252 42 10 252 29 8 252 20 7 253 8 4 252 7 4 252 5 3 253 4 3 253 4 3 253 4 3 253 5 3 253 4 3 253 4 3 111 163 52 57 254 50 117 236 27 193 129 21 253 4 4 249 152 16 189 251 20 49 255 76 39 255 168 39 255 230 40 255 198 60 255 110 201 252 22 166 250 35 38 255 170 31 206 253 24 155 253 17 98 252 14 85 252 15 98 252 19 112 252 18 126 252 18 127 252 18 135 253 20 138 252 22 147 253 28 181 252 31 165 249 58 53 222 82 82 189 238 145 21 251 88 12 251 62 12 251 55 12 252 42 8 229 56 37 153 76 119 162 60 109 179 53 89 252 21 7 232 51 15 173 162 55 111 221 122 151 183 92 128 220 96 102 252 60 119 244 45 206 166 30 247 69 15 253 201 11 255 250 16 253 206 9 
254 193 193 253 4 3 252 71 13 253 195 12 251 155 15 252 16 5 253 4 3 253 4 3 253 4 3 253 4 3 253 4 3 253 4 3 253 4 3 253 4 3 253 4 3 253 4 3 253 4 3 253 11 5 252 23 6 252 14 5 253 4 3 251 26 6 248 47 11 242 59 14 247 41 11 253 6 4 253 4 3 253 5 4 253 5 3 253 4 3 118 164 29 68 254 24 147 243 18 183 154 20 253 5 4 249 160 18 197 253 19 58 254 60 39 255 130 39 255 202 40 255 204 47 255 137 162 234 41 173 220 43 39 254 188 35 219 254 27 175 252 22 109 252 22 79 252 16 96 252 18 123 252 21 144 252 21 145 252 21 143 252 18 127 252 19 133 252 27 174 253 30 164 251 46 75 240 81 128 173 251 46 10 253 14 5 252 12 5 252 9 6 253 6 4 204 63 51 54 150 188 70 134 194 108 121 155 250 67 14 231 46 16 169 148 55 125 222 81 176 217 54 176 223 45 97 216 50 98 223 79 167 187 59 232 85 22 253 188 14 255 255 16 253 228 16 
254 193 193 253 4 3 253 98 12 254 213 12 253 175 16 252 23 6 253 5 3 253 5 3 253 4 3 253 4 3 253 4 3 253 4 3 253 4 3 253 4 3 253 4 3 253 5 3 252 18 7 252 96 11 252 155 17 250 143 17 251 95 12 251 113 14 248 111 13 235 103 16 243 71 16 252 7 4 253 4 3 253 5 3 253 5 3 253 4 3 136 168 33 62 254 41 118 222 50 198 150 28 252 6 4 250 162 17 223 251 18 96 254 27 44 255 87 39 255 203 41 255 246 43 255 218 131 225 83 120 215 76 39 254 226 30 195 253 22 146 252 21 126 252 24 97 252 17 82 251 18 121 253 20 141 252 20 138 252 19 135 252 19 135 252 21 144 252 27 178 252 26 160 253 28 145 227 65 195 129 242 60 15 236 56 16 240 93 15 242 71 16 252 21 5 193 115 43 63 241 93 156 195 76 197 175 49 251 96 13 238 46 13 209 136 22 199 175 29 193 177 48 147 205 92 151 170 72 122 208 103 107 227 96 193 109 42 251 158 20 255 255 15 255 246 18 
254 193 193 253 5 3 252 116 12 254 225 17 253 190 11 252 25 8 253 5 3 253 5 3 253 4 3 253 4 3 253 4 3 253 4 3 253 4 3 253 4 3 253 4 3 253 5 3 252 51 11 253 171 16 253 191 9 251 215 12 252 196 10 252 170 16 251 148 16 248 62 13 251 18 7 253 5 3 253 4 3 253 4 3 253 4 3 252 14 5 117 196 56 45 254 90 84 219 93 198 125 39 253 6 4 252 138 13 232 245 18 104 255 25 44 255 92 38 255 219 41 255 254 43 254 233 71 242 150 54 219 170 39 246 241 21 134 252 29 80 242 45 56 230 32 64 246 18 80 252 18 121 253 20 138 252 18 131 252 18 132 252 18 132 252 21 145 252 27 172 252 27 166 252 31 202 198 59 233 94 191 150 50 159 185 66 174 207 46 168 184 54 250 108 10 216 127 35 117 229 69 143 225 53 167 219 38 251 86 14 240 31 9 206 112 31 165 194 74 127 213 99 99 235 100 134 226 61 147 234 62 126 228 96 193 111 50 251 122 12 255 255 15 255 253 16 
252 222 193 249 143 18 251 165 19 252 240 17 253 204 12 252 30 9 253 5 3 253 5 3 253 4 3 253 4 3 253 4 3 253 4 3 253 4 3 253 4 3 253 4 3 253 8 4 251 57 13 251 94 14 251 60 12 244 134 16 250 107 14 252 24 6 251 37 9 252 11 6 253 4 3 253 4 3 253 4 3 253 4 3 253 4 3 251 44 12 92 236 151 41 255 239 48 253 204 125 220 98 251 21 5 252 138 11 222 243 18 80 255 36 41 255 107 40 255 234 41 254 255 41 254 253 39 244 249 34 217 250 40 246 253 26 104 252 52 31 250 81 5 231 77 7 239 24 71 252 18 105 252 18 124 252 19 119 252 19 112 252 18 132 252 23 150 252 26 168 253 31 208 246 38 245 158 54 249 76 161 233 52 103 252 94 92 243 119 147 200 84 171 187 36 185 214 47 247 68 13 251 23 7 251 14 4 253 4 4 252 14 5 222 86 33 122 226 73 153 238 46 156 238 36 118 240 74 138 184 79 220 78 30 242 25 11 250 95 14 255 255 16 255 255 15 
204 230 214 121 192 130 179 221 50 210 249 18 252 207 11 252 41 8 252 7 4 253 4 3 253 4 3 253 4 3 253 4 3 253 4 3 253 4 3 253 4 3 253 4 3 253 4 3 253 4 3 252 4 3 253 4 3 252 10 4 252 7 4 253 4 3 253 4 3 253 4 3 253 4 3 253 4 3 253 4 3 253 4 3 253 4 3 252 18 7 92 197 161 42 254 251 49 241 204 56 238 183 238 120 16 253 185 12 210 248 18 63 254 62 41 255 146 41 255 244 41 255 247 39 255 213 40 255 148 39 254 165 36 231 243 18 96 252 25 69 251 58 24 248 71 9 249 32 53 252 16 83 252 19 109 252 19 114 252 19 110 252 19 115 252 18 131 253 21 142 252 32 213 246 39 249 196 53 246 117 170 216 60 104 251 112 102 247 116 124 227 104 139 181 51 120 246 86 221 113 25 253 4 3 253 4 3 253 4 3 252 5 3 234 52 15 216 122 22 228 124 20 205 114 29 229 79 21 240 39 16 252 5 3 253 4 3 250 56 11 249 255 17 247 255 16 
194 247 254 44 244 220 114 254 78 161 254 17 241 230 14 204 119 34 202 75 26 247 15 6 253 4 3 253 4 3 253 4 3 253 4 3 253 4 3 253 4 3 253 4 3 253 4 3 253 4 3 253 4 3 253 4 3 253 4 3 253 4 3 253 5 3 253 4 3 253 4 3 253 4 3 253 4 3 253 4 3 253 4 3 253 4 3 253 5 3 93 177 138 41 253 240 47 240 202 45 238 203 206 173 47 246 223 11 176 252 21 46 255 81 39 255 163 41 255 243 40 254 235 41 255 163 42 255 75 39 254 128 35 221 248 19 115 252 21 110 252 32 60 251 48 36 251 45 38 252 35 51 252 22 79 252 17 104 252 18 107 252 17 104 252 19 109 253 18 125 252 31 208 252 39 245 247 49 246 166 182 215 48 109 249 98 94 249 118 117 235 112 97 246 52 123 244 87 191 149 36 252 7 4 253 4 3 253 4 3 253 4 3 243 23 10 243 24 9 252 7 3 252 6 3 253 4 3 253 4 3 253 4 3 253 4 3 250 25 5 234 253 18 231 255 16 
194 235 254 39 226 218 73 254 70 99 254 17 207 254 18 84 250 110 90 208 70 233 48 12 253 4 3 253 4 3 253 4 3 253 4 3 253 4 3 253 4 3 253 4 3 253 4 3 253 4 3 253 4 3 252 23 6 251 49 11 246 21 8 211 91 24 243 18 7 253 4 3 253 4 3 253 4 3 253 4 3 253 4 3 253 4 3 253 4 3 93 178 112 39 252 213 39 251 198 39 249 187 148 205 100 217 232 17 115 254 28 40 255 92 39 255 137 40 252 235 34 219 231 41 239 152 43 234 132 34 218 195 29 184 252 27 132 251 34 100 248 39 56 245 34 56 245 33 57 250 62 19 244 49 36 247 16 88 252 14 92 252 13 89 252 18 107 252 21 143 252 34 216 253 39 245 243 43 249 163 131 230 70 99 251 111 85 251 132 93 251 135 116 213 69 131 228 90 152 214 50 246 77 15 252 15 5 253 4 3 253 4 3 253 4 3 253 4 3 253 4 3 253 4 3 253 4 3 253 4 3 253 4 3 253 4 3 251 6 3 212 243 16 203 255 15 
194 230 254 35 218 214 45 254 64 56 254 17 166 254 17 58 254 144 73 214 83 227 49 12 253 4 3 253 4 3 253 4 3 253 4 3 253 4 3 253 4 3 253 4 3 253 4 3 253 4 3 252 10 4 247 118 14 208 183 20 157 157 33 89 200 83 202 70 32 250 7 4 253 4 3 253 4 3 253 4 3 253 4 3 253 4 3 253 4 3 123 156 83 54 230 156 42 252 204 50 245 189 125 207 109 186 245 28 88 254 27 40 255 85 39 255 135 37 237 247 31 120 244 40 125 219 27 133 224 29 115 244 39 81 249 57 45 223 63 26 193 64 10 173 60 13 170 52 21 172 64 7 168 62 19 221 21 76 251 11 84 252 13 75 251 18 105 252 27 158 245 56 229 199 78 246 161 95 245 100 122 239 69 109 240 109 83 252 141 86 252 143 105 225 76 142 237 69 131 244 48 199 158 34 244 46 11 253 4 3 253 4 3 253 4 3 253 4 3 253 4 3 253 4 3 253 5 3 253 5 3 253 4 3 253 4 3 252 5 4 215 235 14 199 255 15 
194 228 254 33 215 207 39 255 55 44 255 17 114 254 32 44 254 185 67 210 120 227 45 12 253 4 3 253 4 3 253 4 3 253 4 3 253 4 3 253 4 3 253 4 3 253 4 3 253 4 3 251 78 15 232 208 11 105 255 18 41 255 68 42 248 171 143 136 70 234 32 11 253 4 3 253 4 3 253 4 3 253 4 3 253 4 3 253 4 3 239 44 12 210 96 22 108 189 113 45 219 212 62 242 172 177 252 55 106 254 25 40 255 87 38 255 173 30 190 252 25 106 249 32 186 226 37 243 205 30 200 242 23 108 252 43 48 235 57 23 226 78 6 212 81 3 212 77 5 216 78 5 224 60 20 244 42 41 251 38 43 252 24 62 251 22 120 247 79 162 182 230 113 37 252 65 10 251 49 7 208 148 33 131 239 74 98 251 112 95 251 117 79 227 118 140 211 87 142 242 52 233 148 17 251 38 9 253 4 3 253 4 3 253 4 3 253 4 3 253 5 3 253 6 4 252 7 4 252 9 6 253 6 4 253 4 3 252 6 4 200 221 12 174 255 15 
194 223 254 31 205 204 39 255 69 39 254 48 83 254 67 42 255 207 67 209 138 228 44 14 253 4 3 253 4 3 253 4 3 253 4 3 253 4 3 253 4 3 253 4 3 253 4 3 253 4 3 246 132 16 191 234 17 64 255 31 38 255 110 41 252 212 121 159 99 224 43 21 253 4 3 253 4 3 253 4 3 253 4 3 253 4 3 253 4 3 224 73 16 231 66 15 218 52 36 156 110 103 134 144 116 181 168 58 144 226 24 43 255 95 39 255 191 36 223 253 34 220 241 37 247 192 39 254 186 31 209 240 19 113 252 22 71 252 40 41 251 73 8 245 68 11 248 44 38 251 34 47 251 25 58 251 33 50 252 42 39 252 23 64 252 43 116 220 151 120 109 247 26 10 252 7 4 252 15 4 223 123 25 141 223 73 82 251 117 81 249 132 118 243 99 161 187 50 135 227 40 213 176 18 250 60 12 253 5 4 253 4 3 253 4 3 253 4 3 253 6 4 253 28 6 252 41 6 253 38 6 253 8 4 253 6 4 253 6 4 181 205 11 137 255 15 
194 220 254 31 201 210 39 255 103 40 255 78 62 254 95 40 255 217 70 208 141 230 42 14 253 4 3 253 4 3 253 4 3 253 4 3 253 4 3 253 4 3 253 4 3 253 4 3 252 5 3 224 162 21 129 248 19 42 254 72 39 255 165 42 254 238 113 168 118 221 47 28 253 4 3 253 4 3 253 4 3 253 4 3 253 4 3 253 4 3 252 7 4 253 6 4 252 5 3 249 10 7 248 13 10 247 47 11 199 152 21 60 251 68 41 255 154 39 250 234 38 254 218 38 255 176 39 254 205 30 199 246 20 86 252 45 36 251 55 23 252 61 16 251 53 27 251 31 54 251 19 65 251 17 70 252 26 56 252 32 50 252 22 61 252 54 116 208 181 113 79 251 15 5 252 18 5 252 26 5 214 130 36 132 237 85 95 250 114 107 252 95 107 240 105 174 168 35 128 225 41 178 227 15 242 121 12 253 18 7 253 5 4 253 4 3 253 4 3 252 7 4 252 55 8 252 57 8 252 48 8 252 21 5 252 14 4 252 7 4 178 200 12 124 254 16 
194 218 253 32 200 219 40 255 147 38 255 111 43 254 130 39 251 228 70 206 144 231 39 12 253 4 3 253 4 3 253 4 3 253 4 3 253 4 3 253 4 3 253 4 3 253 4 3 252 6 4 179 167 35 68 249 73 42 251 131 46 249 202 43 251 232 131 155 103 229 42 20 253 4 3 253 4 3 253 4 3 253 4 3 253 4 3 253 4 3 253 4 3 253 4 3 253 4 3 253 4 3 253 4 3 252 5 3 227 63 16 88 220 45 42 252 85 37 255 120 40 255 153 38 255 167 39 254 226 32 212 251 25 112 252 41 49 251 34 50 251 26 59 251 30 56 252 16 70 253 14 71 252 25 59 252 34 48 251 47 37 251 38 45 251 51 153 213 157 174 91 248 41 9 252 32 6 252 50 7 237 125 16 200 211 49 165 238 70 150 249 67 145 251 60 179 232 32 168 235 39 216 233 17 247 172 15 252 53 8 253 7 4 253 4 3 253 5 3 252 7 4 253 72 9 252 88 10 252 94 9 252 53 8 252 21 5 253 16 5 179 192 16 102 255 16 
194 221 251 33 209 224 39 255 185 40 255 154 39 246 174 38 244 235 71 206 149 231 40 12 253 4 3 253 4 3 253 4 3 253 4 3 253 4 3 253 4 3 253 4 3 253 4 3 253 5 3 191 121 38 124 185 75 147 135 76 152 130 95 78 239 143 174 110 64 243 20 10 253 4 3 253 4 3 253 4 3 253 4 3 253 4 3 253 4 3 253 4 3 253 4 3 253 4 3 253 4 3 253 4 3 253 4 3 245 21 7 153 143 31 55 231 53 38 255 55 39 255 100 38 255 133 39 255 203 38 243 243 31 195 252 22 111 252 17 91 251 13 79 252 17 75 252 13 77 252 19 66 252 44 37 251 61 20 251 64 15 251 38 60 251 50 179 216 156 186 97 249 61 11 252 54 7 252 70 9 249 117 5 243 161 16 234 190 16 228 216 15 217 235 26 232 227 13 234 217 10 251 193 8 252 168 13 252 74 10 252 11 4 253 4 3 253 5 3 252 25 6 253 93 8 252 113 5 252 129 4 252 84 11 252 39 6 252 28 6 175 191 17 86 253 16 
194 233 250 35 228 242 38 254 220 39 255 228 39 244 252 37 233 249 42 248 228 67 228 161 173 105 64 253 4 3 253 4 3 253 4 3 253 4 3 253 4 3 252 6 3 252 8 4 253 4 3 251 123 16 251 68 14 253 4 3 252 5 3 172 189 34 223 55 17 253 4 3 253 4 3 253 4 3 253 4 3 253 4 3 253 4 3 253 4 3 253 4 3 253 4 3 253 4 3 253 4 3 253 4 3 253 4 3 253 4 3 246 28 8 144 164 41 39 255 69 39 255 100 38 255 106 40 255 158 38 253 222 35 221 253 19 137 253 19 113 252 14 83 252 20 67 252 24 61 252 50 30 252 72 8 248 81 4 241 75 7 245 25 94 252 40 182 228 126 205 130 238 126 16 252 100 8 252 108 7 252 139 6 252 169 12 253 179 11 253 195 7 253 185 10 253 205 4 253 224 11 254 233 15 255 243 18 252 186 11 229 84 32 248 14 7 252 7 6 252 42 8 252 128 2 253 184 11 253 180 12 252 139 8 252 98 8 252 65 8 175 199 24 60 245 62 
194 237 249 36 232 242 38 254 224 39 254 227 39 247 244 37 241 228 37 246 210 49 250 169 119 173 83 183 101 21 174 106 26 181 105 23 185 98 27 174 111 39 131 167 78 222 112 20 247 82 14 238 175 18 247 81 14 252 43 10 252 7 4 239 44 13 249 13 6 253 4 3 253 4 3 253 4 3 253 4 3 253 4 3 253 4 3 253 4 3 253 4 3 253 4 3 253 4 3 253 4 3 253 4 3 253 4 3 253 4 3 252 8 4 248 86 13 71 254 100 39 255 184 39 255 189 38 255 225 38 241 248 27 179 252 20 114 252 23 87 252 39 44 251 60 19 249 75 6 247 79 4 241 80 5 233 80 5 229 55 28 245 18 90 252 26 166 253 33 205 246 102 192 142 185 192 53 225 193 17 253 201 4 253 193 7 253 211 8 253 225 13 253 233 15 253 238 16 255 249 15 253 252 15 238 255 16 140 254 63 76 142 181 119 173 142 150 142 113 155 144 110 159 193 115 162 216 114 166 214 110 170 192 104 175 174 99 174 160 96 123 187 129 57 119 183 
194 233 252 33 215 249 38 238 254 39 244 254 36 227 248 34 222 230 33 215 213 37 227 191 79 201 114 137 167 24 107 211 36 135 182 30 175 116 28 153 144 55 69 217 148 201 211 22 195 205 19 171 227 27 225 98 16 251 89 12 251 14 4 252 19 5 253 6 4 253 4 3 253 4 3 253 4 3 253 4 3 253 4 3 253 4 3 253 4 3 253 4 3 253 5 3 253 12 4 253 19 5 253 4 3 253 4 3 253 5 3 250 32 9 250 75 13 150 253 46 40 255 174 40 253 237 39 242 252 32 208 253 21 143 253 23 80 251 45 43 251 74 9 247 80 5 242 82 4 240 84 3 224 77 7 230 66 14 247 35 48 251 14 82 252 22 146 253 28 180 252 40 178 205 71 230 129 121 247 84 197 231 36 216 217 17 231 236 20 246 246 17 254 244 17 254 251 16 253 254 14 240 255 16 190 255 17 62 254 66 33 132 202 36 179 203 54 206 188 62 203 186 50 187 190 48 188 195 46 186 196 46 174 198 49 168 197 48 170 200 41 141 214 42 72 201 
194 222 254 26 170 253 30 193 253 33 213 253 19 137 252 23 119 252 25 91 252 21 141 251 87 143 165 247 50 11 185 199 16 214 119 16 252 5 3 220 45 41 85 182 160 162 251 27 82 254 60 71 250 72 196 164 30 252 38 7 253 6 4 250 52 11 253 16 5 253 4 3 253 4 3 253 4 3 253 4 3 253 4 3 253 4 3 253 6 4 252 30 6 252 85 13 252 149 17 251 108 13 252 14 4 251 57 13 252 21 7 241 57 14 245 92 12 212 252 18 49 255 86 38 253 187 34 217 249 25 151 252 39 58 251 60 20 249 75 9 241 82 4 236 83 4 231 82 4 236 72 9 244 56 23 251 49 35 251 29 54 251 15 88 251 18 128 252 22 139 253 32 195 245 38 246 228 40 255 207 50 255 157 62 254 155 74 254 144 104 254 95 181 254 31 207 255 20 222 255 17 201 255 16 125 255 15 40 254 68 42 118 164 61 193 129 161 254 57 196 253 51 168 250 61 155 247 70 142 245 75 157 240 83 168 238 86 167 235 90 110 205 127 56 111 162 
193 211 254 19 136 252 26 164 253 26 170 253 18 129 253 35 76 251 48 37 251 23 102 252 64 146 191 249 84 12 223 211 13 235 107 17 253 4 3 212 46 51 74 173 179 138 254 29 66 254 40 73 253 53 197 181 28 252 7 4 253 4 4 250 69 14 253 19 7 253 4 3 252 5 3 252 5 3 253 4 3 253 4 3 253 5 3 252 48 8 251 131 10 251 182 14 251 207 11 251 116 14 251 94 12 249 140 17 252 34 9 232 66 15 233 150 15 217 254 18 49 255 63 40 255 153 37 239 237 31 192 252 36 106 252 45 67 250 50 51 244 60 26 244 63 19 244 70 10 247 66 9 251 48 33 252 49 33 251 27 54 251 15 92 252 21 105 252 27 111 251 36 220 250 41 254 247 41 255 241 40 255 232 40 255 235 39 252 229 41 247 197 63 255 136 81 255 97 101 254 56 96 254 34 70 255 27 39 255 65 40 118 164 66 176 131 207 255 33 248 255 16 234 255 16 233 255 16 231 255 16 243 255 16 249 255 16 250 255 16 183 236 74 74 137 140 
194 196 253 27 77 252 19 130 252 23 111 252 54 26 251 73 9 244 81 5 241 57 25 249 58 111 215 235 112 17 252 192 12 251 86 14 253 4 3 195 51 67 62 150 195 96 254 27 66 254 18 175 176 20 243 52 13 253 6 4 252 12 5 251 16 5 250 73 13 246 166 18 246 214 10 253 223 15 253 174 17 252 46 11 251 55 10 248 204 7 216 251 17 199 254 17 208 216 11 237 126 12 231 245 17 241 181 16 252 40 8 244 23 7 176 156 34 169 254 19 51 255 56 39 255 138 39 255 229 41 255 252 41 251 255 31 204 254 23 150 253 19 75 251 38 42 252 66 12 252 71 8 252 59 17 252 39 43 252 25 58 252 26 60 252 35 75 251 36 158 250 41 250 255 41 255 252 41 255 251 42 255 255 42 255 255 41 255 252 41 255 253 40 255 232 39 255 206 39 255 189 38 255 171 40 255 146 39 255 76 36 219 123 50 222 108 172 255 25 211 255 17 217 255 17 235 255 16 242 255 15 254 255 15 255 255 15 255 255 15 205 240 64 94 147 130 
197 193 253 45 40 251 21 71 252 41 42 251 82 4 229 84 3 201 83 3 206 78 6 231 63 70 225 194 160 65 252 194 13 251 84 14 251 24 8 173 60 89 58 148 181 59 253 67 59 241 76 160 177 25 231 71 15 253 5 3 253 5 4 246 85 14 209 234 17 208 252 17 241 232 16 253 204 7 252 160 16 246 107 11 216 195 14 99 254 15 67 255 15 102 251 16 194 193 15 197 209 10 206 253 17 247 156 17 252 32 7 253 4 3 239 35 12 92 200 90 38 254 120 39 255 165 41 255 243 41 252 255 37 228 254 26 166 253 19 121 252 28 59 252 46 35 251 68 8 252 74 4 252 65 10 251 50 30 252 49 33 251 56 30 246 40 135 246 40 246 254 42 255 255 41 255 252 41 255 253 41 254 255 42 255 255 41 255 253 41 255 254 41 253 253 40 253 236 40 255 233 41 255 240 38 255 225 38 255 181 40 255 148 38 255 127 41 255 103 44 255 88 47 254 51 110 255 50 170 254 22 216 255 16 230 255 16 236 255 16 207 243 55 100 158 122 
197 193 252 51 32 250 38 44 251 57 24 246 83 3 201 80 2 173 81 2 178 83 3 205 69 49 222 168 200 99 252 198 13 248 100 13 249 46 11 163 55 102 58 145 179 61 229 100 125 169 71 220 70 17 245 32 9 252 34 7 253 26 8 243 109 15 216 247 17 234 249 17 250 211 8 250 198 6 250 198 6 200 215 14 117 245 22 41 255 24 45 254 21 100 236 14 177 216 11 147 243 14 226 228 13 250 164 15 252 74 13 253 4 3 253 4 3 207 87 45 69 230 162 46 251 201 41 253 249 40 249 255 36 223 253 26 165 253 19 121 252 22 71 251 31 54 251 49 33 251 58 18 252 55 23 251 59 19 252 63 22 251 51 87 246 37 217 251 42 255 255 41 254 255 42 255 255 42 255 255 41 254 255 42 255 255 42 255 255 42 255 255 40 250 255 41 250 254 41 255 253 41 255 252 41 255 249 41 255 247 41 255 239 39 255 227 39 255 206 39 255 186 38 255 110 46 255 120 84 254 92 140 255 64 170 255 33 195 255 16 193 246 49 95 164 117 
197 193 250 62 20 244 69 12 242 75 8 223 77 2 163 74 2 143 76 2 150 81 1 178 74 23 213 128 188 140 240 219 16 225 140 17 224 73 21 140 65 130 70 124 191 190 80 49 234 33 19 252 56 11 250 137 14 252 177 15 252 96 11 226 149 17 175 252 16 172 253 16 188 250 17 237 255 16 221 255 18 81 255 40 41 255 53 39 255 62 68 243 30 158 220 12 107 240 15 148 244 18 252 127 2 251 219 14 250 161 19 253 6 4 253 5 4 252 11 4 223 128 40 168 212 96 68 240 187 39 217 231 30 191 252 24 154 252 18 122 252 16 91 252 20 75 251 31 52 252 35 48 251 38 54 251 45 85 251 37 154 251 39 235 254 42 255 255 42 254 255 41 253 255 41 254 255 42 255 255 42 255 255 42 255 255 42 255 255 42 255 255 41 254 255 42 254 255 42 255 255 41 255 254 41 255 254 42 255 255 42 255 255 41 255 254 41 255 252 41 255 247 39 255 200 39 255 207 39 253 224 44 253 213 53 254 158 86 254 65 120 248 43 68 173 107 

