P3
2 1
255
111 111 111 222 222 222 
